<svg xmlns="http://www.w3.org/2000/svg" fill="none" viewBox="0 0 117 32">
    <circle cx="11.91" cy="16" r="11.91" fill="#000"/>
    <path
        d="M17.561 19.752l-4.164 4.137a1.786 1.786 0 01-2.518 0l-4.164-4.137a1.766 1.766 0 01-.523-1.251 1.756 1.756 0 01.523-1.25l.45-.447.853-.85 2.952 2.934a1.786 1.786 0 002.518 0l2.86-2.843 1.213 1.206a1.767 1.767 0 01.522 1.251 1.758 1.758 0 01-.522 1.25z"
        fill="#873BFF"/>
    <path
        d="M17.888 17.694c-.08.143-.18.274-.297.39l-4.164 4.137a1.786 1.786 0 01-2.517 0l-4.165-4.138a1.766 1.766 0 01-.522-1.25 1.756 1.756 0 01.522-1.251l.45-.447.823.819 2.952 2.932a1.786 1.786 0 002.518 0l2.86-2.842.855-.847.388.386a1.762 1.762 0 01.297 2.113v-.002z"
        fill="#AF7CFF"/>
    <path
        d="M17.918 16.028c-.08.143-.18.274-.296.39l-.45.446-3.714 3.692a1.786 1.786 0 01-2.518 0l-4.164-4.139a1.763 1.763 0 01-.296-2.112c.085.164.195.315.327.445l.389.386.824.819 2.951 2.932a1.786 1.786 0 002.518 0l2.86-2.842.854-.847.45-.447c.116-.115.215-.246.296-.388a1.763 1.763 0 01-.03 1.665z"
        fill="#D7BEFF"/>
    <path
        d="M17.948 14.361c-.08.143-.18.274-.296.389l-.45.448-.854.848-2.86 2.841a1.786 1.786 0 01-2.518 0l-2.952-2.933-.823-.818-.389-.386a1.767 1.767 0 01-.522-1.25 1.758 1.758 0 01.522-1.251L10.97 8.11a1.786 1.786 0 012.518 0l4.164 4.138a1.765 1.765 0 01.296 2.112z"
        fill="#fff"/>
    <path
        d="M43.987 22.457l-.019-7.748-3.824 6.383h-1.356l-3.806-6.218v7.582h-2.825V9.543h2.488l4.865 8.025 4.79-8.025h2.47l.037 12.913-2.82.001zM48.72 21.535l.966-2.063c.891.571 2.247.96 3.472.96 1.337 0 1.838-.351 1.838-.905 0-1.623-6.034.037-6.034-3.93 0-1.881 1.708-3.21 4.624-3.21 1.373 0 2.897.314 3.843.868l-.966 2.047a5.766 5.766 0 00-2.878-.737c-1.3 0-1.857.405-1.857.922 0 1.697 6.034.055 6.034 3.966 0 1.845-1.726 3.155-4.716 3.155-1.69-.003-3.398-.464-4.326-1.073zM63.834 18.564L62.44 19.93v2.527h-2.898V8.768h2.898v7.748l4.234-3.983h3.454l-4.16 4.207 4.53 5.718h-3.508l-3.157-3.894zM85.657 9.544v12.914h-3.008v-5.295h-5.905v5.295h-3.007V9.544h3.007v5.092h5.905V9.544h3.008zM87.794 17.495c0-2.989 2.321-5.11 5.496-5.11 3.175 0 5.478 2.121 5.478 5.11 0 2.989-2.303 5.11-5.478 5.11s-5.496-2.121-5.496-5.11zm8.04 0c0-1.715-1.096-2.749-2.544-2.749s-2.562 1.034-2.562 2.75c0 1.715 1.114 2.748 2.562 2.748 1.448 0 2.543-1.033 2.543-2.749h.001zM99.732 21.535l.966-2.063c.89.571 2.247.96 3.472.96 1.337 0 1.838-.351 1.838-.905 0-1.623-6.035.037-6.035-3.93 0-1.881 1.71-3.21 4.624-3.21 1.374 0 2.898.314 3.843.868l-.965 2.047a5.768 5.768 0 00-2.878-.737c-1.3 0-1.857.405-1.857.922 0 1.697 6.034.055 6.034 3.966 0 1.845-1.727 3.155-4.715 3.155-1.691-.003-3.398-.464-4.327-1.073z"
        fill="#000"/>
    <path
        d="M117 21.978c-.594.424-1.467.627-2.358.627-2.358 0-3.732-1.2-3.732-3.56v-4.08h-1.542v-2.213h1.542v-2.416h2.897v2.417h2.488v2.214h-2.488v4.04c0 .849.464 1.31 1.244 1.31.427 0 .855-.13 1.17-.37l.779 2.03z"
        fill="#000"/>
</svg>

